<?xml version="1.0" encoding="utf-8"?>
<!-- Generator: Adobe Illustrator 18.1.1, SVG Export Plug-In . SVG Version: 6.00 Build 0)  -->
<svg version="1.1" id="Capa_1" xmlns="http://www.w3.org/2000/svg" xmlns:xlink="http://www.w3.org/1999/xlink" x="0px" y="0px"
	 viewBox="0 0 141.7 141.7" enable-background="new 0 0 141.7 141.7" xml:space="preserve">
<path opacity="0.3" fill="#1D1D1B" d="M65.8,48c-4.4-4.4-4.9-3.5-4.9,0s-3.7,4-3.7,0s-4.3-5.7-4.3-2.7s-0.6,6.9-3.7,5.5
	c-3.2-1.4-4-8-8.1-9.4s4.3-1.2,6.9,2.9s-2.6-4.3-0.3-7.8c2.3-3.5,3.2,3.5,5.2,0s4.9-9.8,8.6-9.5c3.7,0.3,12.1-1.7,12.1-5.2
	s3.5-6,9.8-3.7c6.3,2.3,8.6,3.2,10.1,1.4c1.4-1.7,25.9,12.7,25.6,40c0,0-4.6,0.9-4.6,6.6s-8.4,0-6.3,3.2c2,3.2,2.9,3.7,4.6,3.2
	c1.7-0.6,2.3-6.9,4.3-2c2,4.9,0.3,6.3-3.7,6s-1.4-3.2-9.3-5.2c-7.9-2-13.4,2.9-13.1-1.7c0.3-4.6-4.3-8.4-5.5-4.6
	c-1.2,3.7-3.1,6-5.9,5.5c-2.8-0.6-9.4-3.5-7.1,1.2c2.3,4.6,12.2,9.2,7.1,11.5c-5.1,2.3-3.6,2.9-5.1,6.6c-1.4,3.7-3.5,7.5-6,5.2
	c-2.6-2.3-3.5-1.2-7.5-3.5c-4-2.3-11.8-15.6-10.1-18.7c1.7-3.2-4-4-4.6-7.2c-0.6-3.2,3.7-5.2,6.6-6s6-7.2,8.9-7.8
	C64.6,51.1,71.2,53.4,65.8,48z"/>
<path opacity="0.3" fill="#1D1D1B" d="M79.5,88.6c0,0-1.5,2,0,5.8c1.5,3.7-0.8,3.7,1.8,1.3s0.9-4.5,4-4.2
	C88.5,91.7,82.8,81.1,79.5,88.6z"/>
<circle fill="none" stroke="#000000" stroke-width="10" stroke-miterlimit="10" cx="69.7" cy="69.5" r="54.7"/>
<path fill="none" stroke="#000000" stroke-width="10" stroke-linecap="round" stroke-linejoin="round" stroke-miterlimit="10" d="
	M26.5,103.7C12.2,118,4.4,158.5,82.9,80c74.1-74.1,34.9-67.7,21-53.7"/>
<path fill="none" stroke="#000000" stroke-width="10" stroke-linecap="round" stroke-miterlimit="10" d="M111.8,32.2"/>
</svg>
