<?xml version="1.0" encoding="utf-8"?>
<!-- Generator: Adobe Illustrator 18.1.1, SVG Export Plug-In . SVG Version: 6.00 Build 0)  -->
<svg version="1.1" id="Capa_1" xmlns="http://www.w3.org/2000/svg" xmlns:xlink="http://www.w3.org/1999/xlink" x="0px" y="0px"
	 viewBox="0 0 141.7 141.7" enable-background="new 0 0 141.7 141.7" xml:space="preserve">
<circle fill="none" stroke="#000000" stroke-width="10" stroke-miterlimit="10" cx="69.4" cy="70.9" r="56.1"/>
<g opacity="0.3">
	<path fill="#1D1D1B" d="M14.9,84.7c0,0,20.9-15.7,39.7-27.3C82.3,40.3,111.5,47,118.9,45c0,0-7.5-10.9-9.9-13.2
		c0,0-24.9,5.6-34.4,7.7c-16.9,3.7-28,12.8-37.9,20.6S13.4,73.3,13.4,73.3S12.4,80,14.9,84.7z"/>
	<path fill="#1D1D1B" d="M16.1,54.6c0,0,46.5-18.5,77.3-33.7c0,0-8.6-4.3-16.2-4.8c0,0-5.9,10.5-22.4,17.1s-32.3,8-32.3,8L16.1,54.6
		z"/>
	<path fill="#1D1D1B" d="M48.2,77.2C48.2,77.2,48.2,77.2,48.2,77.2c-4.9,0-7.3-0.8-7.8-2.6c-0.5-1.7-1.9-6.3,36-23.2
		c5.3-2.4,10.6-3.8,15.9-4.2c1.1-0.1,2.2-0.1,3.2-0.1c9.8,0,13,4.1,14,6.5c1.3,3.2,0.5,6.9-2.3,9.7C101.8,68.9,63.8,77.2,48.2,77.2z
		 M43.1,73.7c0.3,0.2,1.4,0.7,5.1,0.7c15.7,0,52.5-8.4,57-13.1c2-2,2.6-4.6,1.7-6.7c-1.5-3.5-6.8-5.2-14.4-4.6c-4.9,0.4-10,1.7-15,4
		C50.7,65.9,43.3,72,43.1,73.7z"/>
	<path fill="#1D1D1B" d="M62.7,71.4C62.7,71.4,62.7,71.4,62.7,71.4c-2.4,0-4.9-0.2-5.5-2C56.8,68,55.9,65,80.6,53.9
		c3.4-1.5,6.9-2.5,10.3-2.7c0.7-0.1,1.4-0.1,2.1-0.1c6.6,0,8.7,2.8,9.4,4.4c0.9,2.2,0.3,4.8-1.6,6.8C97.1,66.3,71.9,71.4,62.7,71.4z
		 M60.2,68.4c0.4,0.1,1.2,0.2,2.6,0.2c0,0,0,0,0,0c9.7,0,33.4-5.4,36.2-8.2c1.1-1.1,1.5-2.6,1-3.7c-0.7-1.7-3.2-2.7-6.9-2.7
		c-0.6,0-1.2,0-1.9,0.1c-3.1,0.3-6.3,1.1-9.4,2.5C66.8,63.1,61.3,66.9,60.2,68.4z"/>
	<path fill="#1D1D1B" d="M90.6,55.6c-1.7,0.1-3.4,0.6-5,1.3c-3.6,1.6-11.8,5.5-11.4,6.9c0.6,1.9,18.8-1.8,20.8-3.8
		C96.8,58.2,96,55.1,90.6,55.6z"/>
	<path fill="#1D1D1B" d="M17.6,94.5c0,0,12.9-6.7,52.9-14.1c35.2-6.5,54.5-18.3,54.5-18.3s1.6,5.5,0,9.7c0,0-33.5,11.9-67.2,18
		c-28,5-32,11-35.4,14.8S17.6,94.5,17.6,94.5z"/>
	<path fill="#1D1D1B" d="M42,127l-0.7-2.7c0.4-0.1,44.2-11.6,82.7-29.5l1.2,2.5C86.4,115.3,42.4,126.9,42,127z"/>
	<path fill="#1D1D1B" d="M25.7,39L25,36.3c0.3-0.1,29.1-7.6,54.5-19.4l1.2,2.5C55,31.3,26,38.9,25.7,39z"/>
	<path fill="#1D1D1B" d="M33.5,119.2l-1.1-9.7c0.2,0,17.9-2.1,37.8-7.1c25.6-6.4,43.2-14.6,50.9-23.7l7.5,6.3
		C107.2,110.3,36.5,118.8,33.5,119.2z"/>
</g>
</svg>
