<?xml version="1.0" encoding="utf-8"?>
<!-- Generator: Adobe Illustrator 18.1.1, SVG Export Plug-In . SVG Version: 6.00 Build 0)  -->
<svg version="1.1" id="Capa_1" xmlns="http://www.w3.org/2000/svg" xmlns:xlink="http://www.w3.org/1999/xlink" x="0px" y="0px"
	 viewBox="0 0 141.7 141.7" enable-background="new 0 0 141.7 141.7" xml:space="preserve">
<circle fill="none" stroke="#000000" stroke-width="10" stroke-miterlimit="10" cx="70.9" cy="70.9" r="56"/>
<path opacity="0.3" fill="#1D1D1B" d="M48.1,25.1c0,0,13.6,0.4,11,5.5s-0.4,6.3,3.2,7s1.4,0.6,0.7,2.4c-0.7,1.7-3.4,8.3-1,6.1
	c2.4-2.2,5.9-4.4,4.5-1.2c-1.4,3.2,7.2,4.4,8.6,2.9c1.4-1.4,5.6-3.8,4.4-1.3c-1.3,2.6-5,7-7.8,7.8c0,0,7.2-2.6,12.4-7.6
	c5.2-5,1.2,0.1,1.7,1.7c0.5,1.6,2.4,8.3,3.7,5.5c1.3-2.8-1.8-7.7,2-7.7s5.7,8.7,3.1,11c-2.6,2.3,1,5.6,5.6,5.6
	c4.6,0,7.3,3.7,6.6,7.7s0.9,2.7,2.3,1.3s3.7-10.6,4.1-7.4c0.4,3.2-2.4,9.3-2.4,11.1c0,1.8,8.1,1,12.5-4.2
	c4.4-5.2-0.6-33.2-18.1-44.8C67.8,1.8,48.1,25.1,48.1,25.1z"/>
<path opacity="0.3" fill="#1D1D1B" d="M15.8,61c0,0,3.9,14.3,12.5,12.5c8.7-1.7-0.9,4.5,2.6,4.9s5-0.8,6.7-4c0,0-0.5,5.3-2.6,7.1
	c0,0,4.2-0.6,3.5,1.7c-0.8,2.3-4.5,8.7-1.2,8.1c3.3-0.6,5.2,0.2,6.7,2.1c1.5,1.8-1.1,7.7,2.5,8c3.6,0.3,4.5,1.5,4.3,2.9
	c-0.2,1.4,2.9-3.8,7.7-4.7c0,0-4.5,3.3-3.6,7.2c0.9,3.9,2.3,1,6.1,0.5c3.8-0.5,14-5,12.5-1.4c-1.5,3.6,1.4,4.3,4.3,3.2
	c2.9-1.1,3.5-1.4,4.6-0.9c1.1,0.4-5.2,5.8-0.9,6.3s10.8-4.2,11.2-1.7s1,9.7-3.4,11c-4.3,1.3-40.4,4.7-54.8-10.3
	C20,98.4,15.8,61,15.8,61z"/>
<path opacity="0.3" fill="#1D1D1B" d="M94.1,92.3c0,0,7.9-0.7,8.7-4.7c0.8-4-2.7-18.5-7.9-13.3S83.9,79.4,82,75.1s-5.5-3.6-4.7-1.5
	s-4.1,4.8-6.4,5.2c-2.2,0.4-2.5,3.9,0.3,3.5c2.8-0.4,8.3,0,5.8,2.6c-2.5,2.5-8,9.1-3.3,5.8s14.9-8.2,13.6-4.4
	C85.9,90,90.5,93,94.1,92.3z"/>
<path opacity="0.3" fill="#1D1D1B" d="M28.8,64c0,0-2,5.5,1.7,1.7c3.7-3.7,5.1-9.9,5.5-5.5s2.4-0.4,4.2-2.4s0.6-3.3,2.2-4.3
	s7.1-0.8,4.7-5.4c-2.4-4.6-2.1-7.5-4.2-5.5s-3.8,2.5-5.9,1.5c-2.1-1-5.8-1.4-5.4,3.4s1.9,7.1-0.8,9.5C28.2,59.4,28.8,64,28.8,64z"/>
</svg>
