<?xml version="1.0" encoding="utf-8"?>
<!-- Generator: Adobe Illustrator 18.1.1, SVG Export Plug-In . SVG Version: 6.00 Build 0)  -->
<svg version="1.1" id="Capa_1" xmlns="http://www.w3.org/2000/svg" xmlns:xlink="http://www.w3.org/1999/xlink" x="0px" y="0px"
	 viewBox="0 0 141.7 141.7" enable-background="new 0 0 141.7 141.7" xml:space="preserve">
<circle fill="none" stroke="#000000" stroke-width="10" stroke-miterlimit="10" cx="70.9" cy="69.5" r="54.8"/>
<g opacity="0.3">
	<path fill="#1D1D1B" d="M19.1,52.8c0,0,24.9,2.8,40.9-5.2s29.3-28,29.3-28l15.1,8.3c0,0-7.4,13.6-40.3,27.6S16.2,66.3,16.2,66.3
		L19.1,52.8z"/>
	<path fill="#1D1D1B" d="M19.1,89.7c0,0,26.2,3.5,51.6-6c27.5-10.3,40.4-22.5,49.8-35.4l5,17.3c0,0-14.3,17.4-47.9,29
		s-48.9,11.9-48.9,11.9L19.1,89.7z"/>
	<path fill="#1D1D1B" d="M17.3,74.4c-0.8,0-1.2,0-1.3,0l0.2-4.1c0.5,0,49.6,1.8,92.5-38.7l2.8,3C71.3,72.6,25.5,74.4,17.3,74.4z"/>
	<path fill="#1D1D1B" d="M24,87.2c-4,0-6.4-0.2-6.5-0.2l0.4-4.1c0.6,0.1,58,5.5,98.4-41.1l3.1,2.7C85.7,83.3,40.6,87.2,24,87.2z"/>
	<path fill="#1D1D1B" d="M42.4,120.1l-0.4-4.1c0.5,0,50.2-5,80.7-34l2.8,3C94,115,44.5,119.9,42.4,120.1z"/>
	<path fill="#1D1D1B" d="M28.2,44.1c-2.3,0-3.7-0.1-4-0.2l0.4-4.1c0.3,0,33.5,2.9,54.3-23.9l3.2,2.5C64.1,41.8,38.1,44.1,28.2,44.1z
		"/>
</g>
</svg>
