<?xml version="1.0" encoding="utf-8"?>
<!-- Generator: Adobe Illustrator 18.1.1, SVG Export Plug-In . SVG Version: 6.00 Build 0)  -->
<svg version="1.1" id="Capa_1" xmlns="http://www.w3.org/2000/svg" xmlns:xlink="http://www.w3.org/1999/xlink" x="0px" y="0px"
	 viewBox="0 0 141.7 141.7" enable-background="new 0 0 141.7 141.7" xml:space="preserve">
<circle cx="69.4" cy="70.9" r="43.6"/>
<path d="M69.4,120c-27.1,0-49.1-22-49.1-49.1c0-27.1,22-49.1,49.1-49.1c27.1,0,49.1,22,49.1,49.1C118.5,98,96.5,120,69.4,120z
	 M69.4,24.8c-25.4,0-46.1,20.7-46.1,46.1C23.3,96.3,44,117,69.4,117c25.4,0,46.1-20.7,46.1-46.1C115.5,45.5,94.8,24.8,69.4,24.8z"/>
<path d="M69.4,125.1c-29.9,0-54.1-24.3-54.1-54.1s24.3-54.1,54.1-54.1s54.1,24.3,54.1,54.1S99.3,125.1,69.4,125.1z M69.4,18.8
	c-28.8,0-52.1,23.4-52.1,52.1s23.4,52.1,52.1,52.1s52.1-23.4,52.1-52.1S98.2,18.8,69.4,18.8z"/>
<path d="M69.4,129.2c-32.1,0-58.3-26.1-58.3-58.3c0-32.1,26.1-58.3,58.3-58.3c32.1,0,58.3,26.1,58.3,58.3
	C127.7,103,101.5,129.2,69.4,129.2z M69.4,13.7c-31.6,0-57.3,25.7-57.3,57.3s25.7,57.3,57.3,57.3s57.3-25.7,57.3-57.3
	S101,13.7,69.4,13.7z"/>
</svg>
